<?xml version="1.0" encoding="UTF-8"?>
<!DOCTYPE svg PUBLIC "-//W3C//DTD SVG 1.1//EN" "http://www.w3.org/Graphics/SVG/1.1/DTD/svg11.dtd">
<!-- Creator: CorelDRAW 2017 -->
<svg xmlns="http://www.w3.org/2000/svg" xml:space="preserve" width="210mm" height="297mm" version="1.1" style="shape-rendering:geometricPrecision; text-rendering:geometricPrecision; image-rendering:optimizeQuality; fill-rule:evenodd; clip-rule:evenodd"
viewBox="0 0 21000 29700"
 xmlns:xlink="http://www.w3.org/1999/xlink">
 <defs>
  <style type="text/css">
   <![CDATA[
    .fil0 {fill:white}
   ]]>
  </style>
 </defs>
 <g id="Слой_x0020_1">
  <metadata id="CorelCorpID_0Corel-Layer"/>
  <path class="fil0" d="M10500 14003c468,0 847,379 847,847 0,468 -379,847 -847,847 -468,0 -847,-379 -847,-847 0,-468 379,-847 847,-847zm-5 132c389,0 705,317 705,707 0,390 -316,707 -705,707 -389,0 -705,-317 -705,-707 0,-390 316,-707 705,-707z"/>
  <g id="_1870316623648">
   <path class="fil0" d="M10144 14850c0,52 40,76 93,76l525 0c126,0 126,-152 0,-152l-525 0c-53,0 -93,24 -93,76z"/>
   <path class="fil0" d="M10144 14562c0,42 24,76 68,76l576 0c89,0 90,-144 -8,-144l-559 0c-38,0 -76,34 -76,68z"/>
   <path class="fil0" d="M10144 15129c0,42 34,76 76,76l559 0c98,0 98,-144 8,-144l-576 0c-51,0 -68,50 -68,68z"/>
  </g>
 </g>
</svg>
